<?xml version="1.0" encoding="utf-8"?>
<!-- Generator: Adobe Illustrator 18.1.1, SVG Export Plug-In . SVG Version: 6.00 Build 0)  -->
<!DOCTYPE svg PUBLIC "-//W3C//DTD SVG 1.1//EN" "http://www.w3.org/Graphics/SVG/1.1/DTD/svg11.dtd">
<svg version="1.1" id="Layer_1" xmlns="http://www.w3.org/2000/svg" xmlns:xlink="http://www.w3.org/1999/xlink" x="0px" y="0px"
	 width="360px" height="360px" viewBox="0 0 360 360" enable-background="new 0 0 360 360" xml:space="preserve">
<path d="M256.6,361.5H103.4C90.5,361.5,80,351,80,338.1V21.9C80,9,90.5-1.5,103.4-1.5h153.2C269.5-1.5,280,9,280,21.9v316.2
	C280,351,269.5,361.5,256.6,361.5z M103.4,5.2c-9.2,0-16.7,7.5-16.7,16.7v316.2c0,9.2,7.5,16.7,16.7,16.7h153.2
	c9.2,0,16.7-7.5,16.7-16.7V21.9c0-9.2-7.5-16.7-16.7-16.7H103.4z M260.7,312.8H98.5V21.1h162.2V312.8z M105.2,306.1h148.8V27.8
	H105.2V306.1z M181.6,349c-7.8,0-14.2-6.4-14.2-14.2c0-7.8,6.4-14.2,14.2-14.2c7.8,0,14.2,6.4,14.2,14.2
	C195.8,342.6,189.4,349,181.6,349z M181.6,325.5c-5.1,0-9.2,4.1-9.2,9.2c0,5.1,4.1,9.2,9.2,9.2s9.2-4.1,9.2-9.2
	C190.8,329.7,186.7,325.5,181.6,325.5z"/>
</svg>
