<?xml version="1.0" encoding="utf-8"?>
<!-- Generator: Adobe Illustrator 18.1.1, SVG Export Plug-In . SVG Version: 6.00 Build 0)  -->
<!DOCTYPE svg PUBLIC "-//W3C//DTD SVG 1.1//EN" "http://www.w3.org/Graphics/SVG/1.1/DTD/svg11.dtd">
<svg version="1.1" id="Layer_1" xmlns="http://www.w3.org/2000/svg" xmlns:xlink="http://www.w3.org/1999/xlink" x="0px" y="0px"
	 width="360px" height="360px" viewBox="0 0 360 360" enable-background="new 0 0 360 360" xml:space="preserve">
<path d="M319.3,354.4H41V3h278.3V354.4z M48.6,346.7h263.1V10.6H48.6V346.7z M228.6,175.8H75.1v7.6h153.5V175.8z M228.6,234.8H75.1
	v7.6h153.5V234.8z M228.6,293.3H75.1v7.6h153.5V293.3z M286.5,196.5h-34.4v-34.4h34.4V196.5z M258.2,190.4h22.2v-22.2h-22.2V190.4z
	 M286.5,255.8h-34.4v-34.4h34.4V255.8z M258.2,249.7h22.2v-22.2h-22.2V249.7z M228.6,56.1H75.1v7.6h153.5V56.1z M228.6,115.5H75.1
	v7.6h153.5V115.5z M286.6,77.1h-34.4V42.7h34.4V77.1z M258.3,71h22.2V48.8h-22.2V71z M286.6,136.6h-34.4v-34.4h34.4V136.6z
	 M258.3,130.5h22.2v-22.2h-22.2V130.5z M286.6,314.7h-34.4v-34.4h34.4V314.7z M258.3,308.6h22.2v-22.2h-22.2V308.6z M269.4,55
	c-2.7,0-4.9,2.2-4.9,4.9c0,2.7,2.2,4.9,4.9,4.9c2.7,0,4.9-2.2,4.9-4.9C274.3,57.2,272.1,55,269.4,55z M269.4,114.4
	c-2.7,0-4.9,2.2-4.9,4.9c0,2.7,2.2,4.9,4.9,4.9c2.7,0,4.9-2.2,4.9-4.9C274.3,116.6,272.1,114.4,269.4,114.4z M269.3,174.7
	c-2.7,0-4.9,2.2-4.9,4.9c0,2.7,2.2,4.9,4.9,4.9s4.9-2.2,4.9-4.9C274.2,176.9,272,174.7,269.3,174.7z M269.3,233.7
	c-2.7,0-4.9,2.2-4.9,4.9c0,2.7,2.2,4.9,4.9,4.9s4.9-2.2,4.9-4.9C274.2,235.9,272,233.7,269.3,233.7z M269.4,292.2
	c-2.7,0-4.9,2.2-4.9,4.9s2.2,4.9,4.9,4.9c2.7,0,4.9-2.2,4.9-4.9S272.1,292.2,269.4,292.2z"/>
</svg>
